<?xml version="1.0" encoding="iso-8859-1"?>
<!-- Generator: Adobe Illustrator 16.0.0, SVG Export Plug-In . SVG Version: 6.00 Build 0)  -->
<!DOCTYPE svg PUBLIC "-//W3C//DTD SVG 1.1//EN" "http://www.w3.org/Graphics/SVG/1.1/DTD/svg11.dtd">
<svg version="1.1" id="Capa_1" xmlns="http://www.w3.org/2000/svg" xmlns:xlink="http://www.w3.org/1999/xlink" x="0px" y="0px"
	 width="966.627px" height="966.627px" viewBox="0 0 966.627 966.627" style="enable-background:new 0 0 966.627 966.627;"
	 xml:space="preserve">
<g>
	<g>
		<path d="M537.9,473.914c97.899-37.7,154-75.4,178.8-94.5c9.3-7.2,20.899-11.2,32.7-11.2c11.8,0,23.399,4,32.699,11.2
			c13.801,10.7,37.4,27.1,72.7,46.2v-275.3c0-19.3-15.7-35-35-35H35c-19.3,0-35,15.7-35,35v347.9c0,19.299,15.7,35,35,35h469
			c-0.2-2.4-0.3-4.701-0.4-6.801C502.6,503.313,516.3,482.213,537.9,473.914z M490.7,433.713c-10.8,11.3-25.3,19.2-42,22.7v5.7
			c0,9.899-8.101,18-18,18h-7.8c-9.9,0-18-8.101-18-18v-6.101c-8.801-1.899-17.101-4.899-24.7-8.8c-10.2-5.2-19-13.7-26.3-25.1
			c-4.801-7.601-8.301-16.4-10.5-26.3c-1-4.801-0.101-9.7,2.699-13.7c2.7-4.101,7.101-6.9,11.9-7.7l7.8-1.4
			c1-0.199,2.101-0.3,3.101-0.3c8.199,0,15.399,5.601,17.5,13.601c2.1,8.1,4.8,14.399,8.199,18.699c7.601,9.7,20.2,15.5,33.601,15.5
			c2.3,0,4.6-0.199,6.8-0.5c9.6-1.399,18.2-6,24.1-12.699c6.301-7.101,9.5-16.2,9.5-26.9c0-9-2.1-16.1-6.399-21.3
			c-8.101-9.9-22.4-14.2-35.4-17.2c-17.1-3.9-32.5-7.8-48.1-16.5c-10.4-5.8-18.5-13.9-24.101-24.2c-5.5-10.1-8.399-21.7-8.399-34.5
			c0-22.7,8.2-41.3,24.3-55.4c8.9-7.8,20.6-13.3,34.2-16.2v-8.8c0-9.9,8.1-18,18-18h7.8c9.9,0,18,8.1,18,18v9
			c12.5,2.8,23.5,8,31.9,14.9c9.699,8,16.8,18.3,21.1,30.4c1.8,5,1.3,10.6-1.5,15.2c-2.8,4.7-7.5,7.8-12.9,8.6l-7.6,1.1
			c-0.9,0.1-1.8,0.2-2.7,0.2c-7.7,0-14.6-4.9-17.1-12.2c-1.7-4.9-3.9-8.9-6.601-12c-6.199-6.9-16-10.9-27-10.9
			c-11.8,0-22.8,4.5-29.6,12.1c-5.5,6.1-8.1,13.2-8.1,21.7c0,8.3,2.3,15.3,6.8,20.7c9.8,11.8,26.5,15.2,42.7,18.4
			c10,2,20.399,4.1,29.5,8.1c9.8,4.3,17.899,9.7,24.199,16c6.4,6.4,11.301,14,14.7,22.7c3.4,8.6,5.101,18.1,5.101,28
			C511.8,400.414,504.7,419.013,490.7,433.713z"/>
		<path d="M950.6,500.614c-23.8-9.201-45.3-18.401-64.5-27.401c-10.5-4.899-21-10-31.3-15.3c-44.8-23.1-74.1-43.4-90.1-55.8
			c-4.5-3.5-9.9-5.2-15.2-5.2s-10.8,1.7-15.2,5.2c-25.5,19.7-84.2,59.3-186,98.5c-10,3.898-16.5,13.699-16,24.5
			c0.601,13.199,2,26.398,4.101,39.5C548,639.114,589.8,768.513,737.6,848.313c3.7,2,7.801,3,11.9,3s8.2-1,11.9-3
			c179.5-97.1,202.6-267.4,205.199-323.301C967.1,514.313,960.6,504.513,950.6,500.614z"/>
	</g>
</g>
<g>
</g>
<g>
</g>
<g>
</g>
<g>
</g>
<g>
</g>
<g>
</g>
<g>
</g>
<g>
</g>
<g>
</g>
<g>
</g>
<g>
</g>
<g>
</g>
<g>
</g>
<g>
</g>
<g>
</g>
</svg>
